<?xml version="1.0" encoding="utf-8"?>
<!-- Generator: Adobe Illustrator 16.0.4, SVG Export Plug-In . SVG Version: 6.00 Build 0)  -->
<!DOCTYPE svg PUBLIC "-//W3C//DTD SVG 1.1//EN" "http://www.w3.org/Graphics/SVG/1.1/DTD/svg11.dtd">
<svg version="1.1" id="Layer_1" xmlns="http://www.w3.org/2000/svg" xmlns:xlink="http://www.w3.org/1999/xlink" x="0px" y="0px"
	 width="130.156px" height="44.64px" viewBox="134.922 46.275 130.156 44.64" enable-background="new 134.922 46.275 130.156 44.64"
	 xml:space="preserve">
<path d="M195.4,48.435l3.24-2.16l1.08,42.479l-3.24,2.161L195.4,48.435z M203.32,48.435l3.24-2.16l1.081,42.479l-3.24,2.161
	L203.32,48.435z M211.242,48.435l3.238-2.16l1.08,42.479l-3.24,2.161L211.242,48.435z M219.161,48.435l3.24-2.16l1.081,42.479
	l-3.24,2.161L219.161,48.435z"/>
<path d="M235.002,82.275l-2.52,2.52l-47.521-30.601l2.521-2.519L235.002,82.275z"/>
<g>
	<path d="M145.361,48.435l3.24-2.16l1.08,42.479l-3.24,2.161L145.361,48.435z M153.281,48.435l3.24-2.16l1.079,42.479l-3.239,2.161
		L153.281,48.435z M161.201,48.435l3.239-2.16l1.081,42.479l-3.24,2.161L161.201,48.435z M169.121,48.435l3.24-2.16l1.08,42.479
		l-3.24,2.161L169.121,48.435z"/>
	<path d="M184.961,82.275l-2.52,2.52l-47.52-30.601l2.52-2.519L184.961,82.275z"/>
</g>
<g>
	<path d="M244.918,48.435l3.24-2.16l1.08,42.479l-3.24,2.161L244.918,48.435z M252.838,48.435l3.24-2.16l1.08,42.479l-3.24,2.161
		L252.838,48.435z M260.758,48.435l3.24-2.16l1.08,42.479l-3.24,2.161L260.758,48.435z"/>
</g>
</svg>
