<?xml version="1.0" encoding="iso-8859-1"?>
<!-- Generator: Adobe Illustrator 16.0.4, SVG Export Plug-In . SVG Version: 6.00 Build 0)  -->
<!DOCTYPE svg PUBLIC "-//W3C//DTD SVG 1.1//EN" "http://www.w3.org/Graphics/SVG/1.1/DTD/svg11.dtd">
<svg version="1.1" id="Layer_1" xmlns="http://www.w3.org/2000/svg" xmlns:xlink="http://www.w3.org/1999/xlink" x="0px" y="0px"
	 width="512px" height="128px" viewBox="0 0 512 128" style="enable-background:new 0 0 512 128;" xml:space="preserve">
<path d="M1,7l9-6l3,118l-9,6L1,7z M61,7l9-6l3,118l-9,6L61,7z M83,7l9-6l3,118l-9,6L83,7z M143,7l9-6l3,118l-9,6L143,7z M165,7l9-6
	l3,118l-9,6L165,7z M187,7l9-6l3,118l-9,6L187,7z M247,7l9-6l3,118l-9,6L247,7z M269,7l9-6l3,118l-9,6L269,7z M291,7l9-6l3,118l-9,6
	L291,7z M313,7l9-6l3,118l-9,6L313,7z M400,7l9-6l3,118l-9,6L400,7z M422,7l9-6l3,118l-9,6L422,7z M444,7l9-6l3,118l-9,6L444,7z
	 M466,7l9-6l3,118l-9,6L466,7z M510,101l-7,7L371,23l7-7L510,101z"/>
</svg>
